# xmcd
#
# Track frame offsets: 
#        150
#        15645
#        28668
#        48181
#        66935
#        84556
#        101733
#        111406
#        136450
#        147433
#        164125
#        177887
#
# Disc length: 2619 seconds
#
# Revision: 0
# Processed by: cddbd v1.5.2PL0 Copyright (c) Steve Scherf et al.
# Submitted via: ExactAudioCopyFreeDBPlugin 1.0
#
DISCID=ac0a390c
DTITLE=Tua - Raus (Kosmos-Version)
DYEAR=2016
DGENRE=Rap
TTITLE0=Raus
TTITLE1=SHSFLS
TTITLE2=Moment
TTITLE3=Babylon
TTITLE4=Nur du zählst
TTITLE5=MP3-Player
TTITLE6=Menetekel
TTITLE7=Vadata
TTITLE8=Stadt aus Heißluftballons
TTITLE9=Folg mir
TTITLE10=Früher (Bonustrack)
TTITLE11=Tua, Chefket - Tust du noch so? (Bonustrack)
EXTD=
EXTT0=
EXTT1=
EXTT2=
EXTT3=
EXTT4=
EXTT5=
EXTT6=
EXTT7=
EXTT8=
EXTT9=
EXTT10=
EXTT11=
PLAYORDER=
